<svg xmlns="http://www.w3.org/2000/svg" xmlns:xlink="http://www.w3.org/1999/xlink" width="500" zoomAndPan="magnify" viewBox="0 0 375 52.499999" height="70" preserveAspectRatio="xMidYMid meet" version="1.0"><path fill="#ffffff" d="M 103.664062 13.574219 C 103.53125 13.574219 103.664062 13.574219 103.339844 13.382812 C 103.144531 13.1875 102.886719 12.863281 102.886719 12.601562 C 102.558594 10.269531 103.015625 7.9375 105.347656 6.898438 C 106.539062 6.328125 107.792969 6.003906 109.109375 5.925781 C 111.570312 5.859375 114.101562 5.796875 116.5625 5.667969 C 119.867188 5.535156 123.046875 5.210938 126.480469 4.5625 C 127.453125 4.433594 126.15625 3.398438 126.546875 2.683594 C 126.871094 2.035156 127.324219 1.191406 127.90625 1.128906 C 129.007812 1.128906 129.59375 2.554688 130.695312 2.941406 C 131.34375 3.203125 132.054688 3.332031 132.769531 3.527344 C 133.613281 3.785156 134.585938 4.109375 135.492188 4.691406 C 135.816406 4.886719 136.078125 5.082031 136.59375 5.210938 C 137.4375 5.601562 137.566406 5.667969 137.890625 5.925781 C 138.667969 6.3125 139.640625 6.445312 140.097656 6.960938 C 141.457031 8.324219 142.105469 9.945312 143.078125 11.695312 C 144.308594 13.703125 143.207031 16.558594 141.195312 17.203125 C 138.214844 18.046875 135.363281 16.296875 132.511719 14.742188 C 131.992188 14.417969 128.621094 13.1875 126.480469 12.796875 C 124.148438 12.40625 122.074219 11.757812 119.871094 11.304688 C 117.925781 10.851562 115.980469 10.589844 113.90625 10.722656 C 113.128906 10.785156 111.441406 11.824219 112.351562 12.339844 C 115.527344 14.285156 118.898438 15.453125 122.332031 16.621094 C 125.316406 17.660156 128.296875 18.761719 131.152344 20.378906 C 133.613281 21.808594 136.011719 22.910156 138.347656 24.660156 C 141.523438 26.925781 139.902344 22.066406 140.875 20.121094 C 142.625 21.484375 142.691406 19.148438 143.726562 18.566406 C 145.28125 17.722656 146.710938 19.472656 147.421875 20.640625 C 148.71875 22.453125 149.238281 24.660156 150.792969 26.214844 C 154.164062 24.464844 155.847656 20.964844 158.3125 18.175781 C 159.414062 16.945312 161.296875 16.488281 162.589844 17.269531 C 164.992188 18.824219 164.148438 22.453125 166.09375 24.59375 C 167.390625 22.714844 167.453125 20.378906 168.6875 18.628906 C 169.140625 17.980469 169.789062 17.136719 169.789062 16.359375 C 169.789062 15.648438 168.492188 15.96875 168.230469 15.320312 C 168.101562 15.0625 168.101562 14.542969 168.230469 14.414062 C 168.878906 13.703125 169.203125 13.960938 170.175781 13.894531 C 170.890625 13.765625 171.085938 12.535156 171.605469 12.46875 C 173.292969 12.109375 175 12 176.722656 12.144531 C 178.410156 12.273438 180.09375 12.597656 181.78125 13.117188 C 185.21875 14.15625 188.265625 15.777344 190.402344 19.082031 C 190.53125 19.210938 191.246094 19.277344 191.308594 18.757812 C 191.503906 17.460938 190.53125 15.582031 191.179688 15.386719 C 194.097656 14.21875 194.097656 19.730469 196.820312 21.15625 C 199.480469 19.015625 202.074219 16.875 205.054688 15.128906 C 205.65625 14.789062 206.296875 14.574219 206.980469 14.484375 C 207.664062 14.394531 208.339844 14.4375 209.007812 14.609375 C 210.304688 14.867188 213.414062 16.875 213.804688 17.265625 C 214.390625 17.914062 214.972656 18.5 215.878906 17.65625 C 219.636719 14.609375 223.917969 12.339844 228.390625 11.496094 C 231.761719 10.847656 235.132812 10.976562 238.503906 12.082031 C 242.457031 13.3125 241.421875 17.914062 243.429688 20.3125 C 243.753906 20.574219 244.207031 19.339844 245.050781 19.148438 C 245.632812 18.953125 245.4375 19.730469 245.503906 19.859375 C 245.765625 20.507812 245.828125 21.222656 245.765625 22 C 245.503906 24.335938 244.402344 26.925781 246.800781 27.25 C 253.804688 28.222656 260.871094 27.507812 267.480469 24.65625 C 267.480469 24.65625 269.101562 24.007812 275.585938 31.464844 C 276.558594 32.632812 275.261719 34.125 273.964844 34.640625 C 273.1875 34.964844 272.277344 35.160156 271.304688 35.355469 C 269.425781 35.742188 267.351562 35.808594 265.601562 35.289062 C 256.460938 32.761719 247.449219 34.769531 238.570312 34.382812 C 237.53125 34.316406 237.464844 33.734375 237.59375 32.957031 C 237.660156 31.917969 238.179688 30.621094 237.464844 29.652344 C 234.546875 31.011719 231.566406 32.371094 228.390625 33.476562 C 226.507812 34.125 224.4375 34.644531 222.425781 34.902344 C 216.917969 35.679688 209.914062 36.714844 207.582031 30.300781 C 206.800781 28.222656 208.359375 26.410156 209.71875 24.851562 C 209.914062 24.59375 210.109375 23.75 209.394531 23.6875 C 205.183594 23.101562 201.097656 24.851562 199.089844 28.417969 C 197.53125 31.140625 197.921875 34.316406 197.335938 37.492188 C 197.078125 38.339844 195.585938 38.53125 194.875 38.078125 C 192.863281 36.78125 191.375 35.289062 190.078125 33.347656 C 188.976562 31.59375 190.53125 29.324219 188.910156 27.574219 C 185.800781 30.492188 181.324219 29.714844 177.824219 32.179688 C 177.695312 32.308594 177.5 33.28125 178.019531 33.28125 C 178.992188 33.347656 179.253906 34.125 178.992188 34.773438 C 178.601562 35.746094 177.761719 35.808594 176.722656 35.808594 C 176.59375 35.875 176.335938 35.875 176.074219 35.875 C 175.75 35.875 175.554688 36.394531 175.296875 36.457031 C 174.195312 36.652344 173.222656 36.328125 172.25 35.875 C 172.121094 35.875 171.601562 36.261719 171.601562 36.523438 C 171.539062 40.152344 173.027344 43.847656 172.25 47.347656 C 172.054688 48.191406 171.148438 49.941406 170.046875 50.65625 C 169.398438 51.171875 168.554688 51.238281 167.84375 50.136719 C 167.519531 49.554688 168.425781 48.839844 168.167969 48.125 C 166.613281 43.394531 166.027344 38.726562 164.992188 33.863281 C 164.664062 32.179688 161.8125 31.464844 161.164062 29.585938 C 160.648438 28.417969 160.90625 26.925781 159.933594 26.019531 C 159.671875 25.824219 159.089844 25.824219 158.960938 26.214844 C 157.664062 28.875 157.664062 31.917969 155.394531 33.996094 C 154.550781 34.96875 152.933594 35.484375 151.832031 35.808594 C 151.246094 35.941406 147.421875 36.132812 145.671875 34.773438 C 144.308594 33.734375 143.660156 32.050781 142.234375 31.53125 C 141.003906 31.140625 140.550781 33.152344 139.511719 33.734375 C 136.917969 35.097656 134.066406 34.835938 131.34375 34.902344 C 124.148438 35.097656 116.953125 34.382812 109.886719 34.964844 C 109.757812 34.964844 103.46875 36.132812 100.550781 36.328125 C 97.957031 36.523438 95.234375 37.234375 92.964844 35.292969 C 91.992188 34.511719 92.253906 34.578125 91.863281 34.449219 C 91.539062 34.253906 91.28125 33.863281 90.953125 33.863281 C 89.722656 33.734375 88.234375 33.734375 87.390625 33.148438 C 85.703125 32.179688 84.796875 30.300781 82.851562 29.195312 C 81.683594 28.484375 81.425781 26.148438 81.425781 26.019531 C 81.359375 25.242188 81.359375 24.398438 81.230469 23.554688 C 81.230469 23.039062 81.359375 21.742188 82.398438 22.257812 C 83.953125 23.039062 84.925781 24.59375 85.898438 24.789062 C 90.113281 25.4375 94.261719 25.890625 98.34375 26.148438 C 103.207031 26.472656 108.003906 26.667969 112.800781 26.734375 C 116.628906 26.796875 120.320312 26.863281 124.082031 26.734375 C 124.601562 26.734375 125.765625 26.605469 125.636719 25.957031 C 125.574219 25.695312 125.574219 25.175781 125.378906 24.980469 C 122.007812 22.324219 118.3125 20.507812 114.488281 18.628906 C 113.320312 18.046875 110.726562 16.945312 108.785156 16.167969 C 108.457031 15.972656 108.070312 15.839844 107.808594 15.710938 C 107.8125 15.714844 107.550781 15.519531 103.664062 13.574219 Z M 228.390625 17.59375 C 227.484375 17.984375 226.445312 18.503906 225.472656 18.957031 C 222.296875 20.511719 219.765625 22.519531 218.015625 25.699219 C 217.628906 26.152344 218.210938 26.671875 218.40625 26.929688 C 221.0625 29.394531 224.5625 27.96875 227.546875 27.773438 C 227.871094 27.707031 228.066406 27.707031 228.390625 27.707031 C 232.085938 27.449219 236.105469 26.996094 238.566406 24.144531 C 239.992188 22.394531 237.789062 19.085938 235.910156 17.726562 C 233.578125 16.039062 230.917969 16.558594 228.390625 17.59375 Z M 176.722656 19.28125 C 175.945312 19.085938 175.167969 19.023438 174.257812 19.28125 C 173.675781 19.410156 173.480469 20.125 173.417969 20.578125 C 172.832031 24.335938 171.210938 27.644531 171.535156 31.46875 C 171.535156 31.726562 171.859375 31.921875 172.25 31.792969 C 173.480469 31.144531 173.546875 29.523438 175.230469 29.261719 C 175.621094 29.199219 176.203125 28.355469 176.464844 28.226562 C 176.59375 28.160156 176.65625 28.097656 176.722656 28.097656 C 178.601562 27.253906 180.417969 26.476562 181.648438 24.921875 C 182.429688 23.882812 181.78125 22.847656 180.675781 21.871094 C 179.507812 20.773438 178.214844 19.734375 176.722656 19.28125 Z M 176.722656 19.28125 " fill-opacity="1" fill-rule="evenodd"/></svg>